<?xml version="1.0" encoding="utf-8"?>
<!-- Generator: Adobe Illustrator 22.0.0, SVG Export Plug-In . SVG Version: 6.00 Build 0)  -->
<svg version="1.1" id="图层_1" xmlns="http://www.w3.org/2000/svg"  x="0px" y="0px"
	 viewBox="0 0 1024 1024" style="enable-background:new 0 0 1024 1024;" xml:space="preserve">
<style type="text/css">
	.st0{fill:#007AFF;}
	.st1{fill:#66AFFF;}
	.st2{fill:#FFFFFF;}
	.st3{fill:#99CAFF;}
	.st4{clip-path:url(#SVGID_2_);}
	.st5{fill:none;stroke:#FFFFFF;stroke-width:18;stroke-miterlimit:10;}
</style>
<circle class="st0" cx="505.3" cy="515.5" r="448"/>
<g>
	<path class="st2" d="M634.1,734.3H377.4c-42.5,0-77.1-36.3-77.1-80.9V384c0-44.6,34.6-80.9,77.1-80.9c7.2,0,13.1,6.1,13.1,13.7
		s-5.9,13.7-13.1,13.7c-28.1,0-50.9,24-50.9,53.4v269.4c0,29.5,22.8,53.4,50.9,53.4h256.7c28.1,0,50.9-24,50.9-53.4v-232
		c0-7.6,5.9-13.7,13.1-13.7c7.2,0,13.1,6.1,13.1,13.7v232C711.2,698,676.6,734.3,634.1,734.3z"/>
	<path class="st2" d="M609.9,618.8H343.5c-24.2,0-44-19.8-44-44V344.9c0-24.2,19.8-44,44-44h266.5c24.2,0,44,19.8,44,44v229.9
		C654,599,634.1,618.8,609.9,618.8z"/>
	<path class="st2" d="M630,614.8H323.4c-13.2,0-23.9-10.8-23.9-23.9V320.7c0-13.2,10.8-23.9,23.9-23.9H630
		c13.2,0,23.9,10.8,23.9,23.9v270.1C653.9,604,643.1,614.8,630,614.8z"/>
	<rect x="305.6" y="544.9" class="st2" width="272.9" height="131.6"/>
	<path class="st0" d="M633.6,706.6H373.7c-25.4,0-46.3-20.8-46.3-46.3v0c0-25.4,20.8-46.3,46.3-46.3h259.9
		c25.4,0,46.3,20.8,46.3,46.3v0C679.8,685.7,659,706.6,633.6,706.6z"/>
	<path class="st3" d="M627.1,676.5H380.2c-8.4,0-15.3-6.9-15.3-15.3v0c0-8.4,6.9-15.3,15.3-15.3h246.9c8.4,0,15.3,6.9,15.3,15.3v0
		C642.4,669.7,635.5,676.5,627.1,676.5z"/>
</g>
</svg>
