<?xml version="1.0" encoding="utf-8"?>
<!-- Generator: Adobe Illustrator 22.0.0, SVG Export Plug-In . SVG Version: 6.00 Build 0)  -->
<svg xmlns:xlink="http://www.w3.org/1999/xlink" version="1.1" id="图层_1" xmlns="http://www.w3.org/2000/svg" x="0px" y="0px"
	 viewBox="0 0 1024 1024" style="enable-background:new 0 0 1024 1024;" xml:space="preserve">
<style type="text/css">
	.st0{fill:#007AFF;}
	.st1{fill:#FFFFFF;}
	.st2{fill:#66AFFF;}
	.st3{fill:#99CAFF;}
</style>
<circle class="st0" cx="509.9" cy="511.6" r="448"/>
<path class="st1" d="M660.1,301.4l-200-1.7L416,361.5c-9.7,0-27.8,16-27.8,25.7l-46.2,30.2v288.4c0,9.7,7.9,17.6,17.6,17.6h300.4
	c9.7,0,17.6-7.9,17.6-17.6V319.1C677.7,309.3,669.8,301.4,660.1,301.4z"/>
<rect x="388.1" y="429" class="st3" width="243.6" height="16.2"/>
<rect x="388.1" y="382.6" class="st3" width="243.6" height="16.2"/>
<path class="st3" d="M460.1,299.7v109.1c0,4.9-4.1,8.6-8.9,8.6H342.1C342.1,417.4,460.1,299.7,460.1,299.7z"/>
<g>
	<rect x="431" y="475.4" class="st3" width="202.2" height="16.2"/>
	<path class="st3" d="M390.1,468.9v29.3h29.3v-29.3H390.1z M400.8,493.3l-7.7-6.6l2.4-2.8l4.9,4.2l13.3-14.3l2.7,2.4L400.8,493.3z"
		/>
</g>
<g>
	<rect x="431" y="531" class="st3" width="202.2" height="16.2"/>
	<path class="st3" d="M390.1,524.5v29.3h29.3v-29.3H390.1z M400.8,548.9l-7.7-6.6l2.4-2.8l4.9,4.2l13.3-14.3l2.7,2.4L400.8,548.9z"
		/>
</g>
<g>
	<rect x="431" y="586.6" class="st3" width="202.2" height="16.2"/>
	<path class="st3" d="M390.1,580v29.3h29.3V580H390.1z M400.8,604.4l-7.7-6.6l2.4-2.8l4.9,4.2l13.3-14.3l2.7,2.4L400.8,604.4z"/>
</g>
<g>
	<rect x="431" y="642.1" class="st3" width="202.2" height="16.2"/>
	<path class="st3" d="M390.1,635.6v29.3h29.3v-29.3H390.1z M400.8,660l-7.7-6.6l2.4-2.8l4.9,4.2l13.3-14.3l2.7,2.4L400.8,660z"/>
</g>
</svg>
