<?xml version="1.0" encoding="utf-8"?>
<!-- Generator: Adobe Illustrator 22.0.0, SVG Export Plug-In . SVG Version: 6.00 Build 0)  -->
<svg version="1.1" id="图层_1" xmlns="http://www.w3.org/2000/svg"  x="0px" y="0px"
	 viewBox="0 0 1024 1024" style="enable-background:new 0 0 1024 1024;" xml:space="preserve">
<style type="text/css">
	.st0{fill:#007AFF;}
	.st1{fill:#66AFFF;}
	.st2{fill:#FFFFFF;}
	.st3{fill:#99CAFF;}
	.st4{clip-path:url(#SVGID_2_);}
</style>
<circle class="st0" cx="503.8" cy="506.5" r="448"/>
<g>
	<path class="st2" d="M499.6,737.9c-2.3-0.3-4.6-0.6-6.9-1c-11.7-2.2-21.9-7.3-30.5-15.5c-10-9.5-16-21.2-18-34.8
		c-0.6-3.9-0.6-8-0.9-11.9c-0.9-12.8-5.2-24.4-12.8-34.8c-9.4-12.8-19-25.4-27.9-38.4c-9.7-14.2-15.8-30-18.1-47
		c-5.3-38.5,5.4-72.2,31.4-100.8c17.8-19.5,40.1-31.4,66.2-35.8c34-5.8,65.1,1.3,92.9,21.8c15.1,11.1,26.7,25.2,35.2,41.8
		c7.5,14.7,12,30.2,13.7,46.6c0.7,7,1,14.1,0.5,21.2c-0.7,10.4-3.5,20.3-7.5,29.9c-5.6,13.7-13.4,26-22.4,37.7
		c-6.1,8-12.1,16.1-18.1,24.1c-7.1,9.5-11,20.3-12,32.1c-0.4,5.1-0.5,10.2-1.3,15.1c-3.8,23.6-22.3,43.1-45.6,48.2
		c-2.9,0.6-5.9,0.9-8.9,1.4c-0.2,0-0.5,0.1-0.7,0.2C505.2,737.9,502.4,737.9,499.6,737.9z M504.4,455.9c-4.7,0.5-9.3,0.7-13.9,1.5
		c-20.5,3.5-37.5,13.3-50.2,29.9c-12.9,16.9-18.7,36-16.4,57.3c1.5,13.7,6.4,26.1,14.2,37.4c11.8,17.1,23.8,34.2,35.6,51.3
		c1.8,2.6,4.1,3.7,7,3.7c8.2,0.1,16.3,0.1,24.5,0c5.1,0,10.1-0.2,15.2,0.4c5.1,0.6,9.8-0.9,13.3-4.8c1.8-2,3.4-4.3,4.9-6.5
		c3.4-5.1,6.6-10.4,10.2-15.4c6.8-9.6,14-19,20.8-28.6C582.3,564,587.3,544,583,522c-4.1-20.8-14.6-37.7-31.5-50.4
		C537.5,461.1,521.7,456.2,504.4,455.9z M523,677.8c-13,0-25.8,0-38.7,0c0.7,9.9,7.6,20.3,20.4,19.7
		C515.5,697,524.2,687.6,523,677.8z"/>
	<path class="st3" d="M262.1,535.6c0.3-1.6,0.6-3.3,1-4.9c2.9-9.6,13.2-15.8,23.1-13.7c10.5,2.2,17.4,11.6,16.2,21.9
		c-1.2,9.8-9.9,17.8-19.5,17.9c-10.4,0.1-19.3-7.5-20.5-17.5c-0.1-0.6-0.2-1.2-0.3-1.7C262.1,536.8,262.1,536.2,262.1,535.6z"/>
	<path class="st1" d="M644.8,656.9c0.2,11.1-8.8,20.5-19.8,20.6c-11.1,0.2-20.4-9-20.5-20.1c-0.1-11,8.8-19.9,19.9-20
		C635.6,637.3,644.7,646,644.8,656.9z"/>
	<path class="st3" d="M745.5,536.5c0,11.1-9.1,20.1-20.2,20.1c-10.9,0-20-9.2-20-20.3c0-11.1,8.9-19.8,20.2-19.8
		C736.6,516.6,745.5,525.4,745.5,536.5z"/>
	<path class="st3" d="M503.8,315c-11,0-20-9.2-20-20.2c0-11,9-19.8,20.3-19.8c11,0,20,8.9,20,19.9C524.1,305.8,514.9,315,503.8,315z
		"/>
	<path class="st3" d="M322.7,375.4c-11,0-20.2-9.1-20.2-20.1c0-11,9-19.9,20-20c11.2,0,20.3,8.9,20.3,19.9
		C342.9,366.2,333.6,375.4,322.7,375.4z"/>
	<path class="st1" d="M483.7,375.4c0-11.1,8.9-19.9,20.3-19.9c11.1,0,20,8.9,20.1,19.9c0,11-9.2,20.2-20.3,20.2
		C492.9,395.5,483.7,386.4,483.7,375.4z"/>
	<path class="st1" d="M383.1,637.4c11.2,0,20.1,8.9,20.1,20c0,10.8-9.3,20.1-20.1,20.1c-11,0-20.3-9.3-20.2-20.3
		C363,646.2,371.9,637.4,383.1,637.4z"/>
	<path class="st1" d="M383,435.8c-11,0-20.2-9.2-20.1-20.2c0-10.9,9-19.9,20.2-19.9c11-0.1,20.1,9,20.1,20
		C403.2,426.7,394,435.8,383,435.8z"/>
	<path class="st1" d="M644.8,536.4c0-11.1,9-19.9,20.3-19.8c11,0,20,9,20,20c0,11.1-9.3,20.2-20.6,20.1
		C653.9,556.6,644.8,547.3,644.8,536.4z"/>
	<path class="st1" d="M624.7,435.8c-11,0-20.1-9.2-20.1-20.1c0-11,9.1-20,20.1-20c11.2,0.1,20.2,8.9,20.2,20
		C644.8,426.7,635.7,435.9,624.7,435.8z"/>
	<path class="st1" d="M362.9,536.5c0,10.9-9.2,20.1-20.1,20.1c-11.1,0-20.3-9.1-20.2-20.2c0-11,9-19.9,20.2-19.9
		C354,516.6,362.9,525.5,362.9,536.5z"/>
	<path class="st3" d="M705.3,355.4c0,11-9.2,20.1-20.3,20.1c-10.9,0-20-9.2-19.9-20.2c0-11,9-19.9,20-19.9
		C696.3,335.4,705.3,344.2,705.3,355.4z"/>
	<path class="st0" d="M504.4,455.9c17.3,0.3,33.1,5.2,47,15.6c16.9,12.7,27.5,29.6,31.5,50.4c4.3,22-0.7,42-13.4,60.2
		c-6.8,9.7-14,19-20.8,28.6c-3.6,5-6.7,10.3-10.2,15.4c-1.5,2.3-3.1,4.5-4.9,6.5c-3.5,3.9-8.2,5.4-13.3,4.8
		c-5.1-0.6-10.1-0.5-15.2-0.4c-8.2,0.1-16.3,0-24.5,0c-2.9,0-5.2-1.1-7-3.7c-11.8-17.1-23.8-34.2-35.6-51.3
		c-7.8-11.3-12.7-23.8-14.2-37.4c-2.3-21.3,3.5-40.4,16.4-57.3c12.7-16.6,29.6-26.4,50.2-29.9C495,456.6,499.7,456.4,504.4,455.9z"
		/>
	<path class="st0" d="M523,677.8c1.2,9.8-7.5,19.2-18.3,19.7c-12.8,0.6-19.7-9.9-20.4-19.7C497.2,677.8,510,677.8,523,677.8z"/>
</g>
</svg>
