<?xml version="1.0" encoding="utf-8"?>
<!-- Generator: Adobe Illustrator 22.0.0, SVG Export Plug-In . SVG Version: 6.00 Build 0)  -->
<svg xmlns:xlink="http://www.w3.org/1999/xlink" version="1.1" id="图层_1" xmlns="http://www.w3.org/2000/svg" x="0px" y="0px"
	 viewBox="0 0 1024 1024" style="enable-background:new 0 0 1024 1024;" xml:space="preserve">
<style type="text/css">
	.st0{fill:#007AFF;}
	.st1{fill:#FFAD96;}
	.st2{fill:#FFFFFF;}
	.st3{fill:#66AFFF;}
</style>
<circle class="st0" cx="512" cy="512" r="448"/>
<path class="st1" d="M256,498.9c0.4-8.7,1.3-17.3,2.6-25.8C257.3,481.6,256.5,490.2,256,498.9z"/>
<path class="st1" d="M258.6,473.1c1.3-8.5,3-16.8,5.1-25C261.6,456.3,259.9,464.7,258.6,473.1z"/>
<path class="st1" d="M271.2,424.2c4.3-11.8,9.4-23.1,15.3-34C280.7,401.1,275.5,412.4,271.2,424.2z"/>
<path class="st2" d="M505.4,691.8h11.8c106.2-56.9,177-47.1,177-47.1l5.9-5.9V314.9c-97.7-18.9-188.8,58.9-188.8,58.9
	c-92.9-77.7-188.8-58.9-188.8-58.9v323.9l5.9,5.9C441.3,648.8,505.4,691.8,505.4,691.8z"/>
<polygon class="st0" points="499.5,409.2 505.4,403.3 517.2,403.3 523.1,409.2 523.1,656.5 517.2,662.4 505.4,662.4 499.5,656.5 "/>
<path class="st3" d="M717.9,356.2v306.2c-165.3-9.3-200.6,47.1-200.6,47.1h-11.8c-55.2-54.7-200.6-47.1-200.6-47.1V356.2h-23.6
	v335.7c158-6.4,200.6,41.2,200.6,41.2h59c32.9-48.9,200.6-41.2,200.6-41.2V356.2C741.5,356.2,717.9,356.2,717.9,356.2z"/>
</svg>
