<?xml version="1.0" encoding="utf-8"?>
<!-- Generator: Adobe Illustrator 22.0.0, SVG Export Plug-In . SVG Version: 6.00 Build 0)  -->
<svg xmlns:xlink="http://www.w3.org/1999/xlink" version="1.1" id="图层_1" xmlns="http://www.w3.org/2000/svg" x="0px" y="0px"
	 viewBox="0 0 1024 1024" style="enable-background:new 0 0 1024 1024;" xml:space="preserve">
<style type="text/css">
	.st0{fill:#007AFF;}
	.st1{fill:#66AFFF;}
	.st2{fill:#FFFFFF;}
	.st3{fill:#99CAFF;}
	.st4{clip-path:url(#SVGID_2_);}
</style>
<circle class="st0" cx="504.1" cy="504.1" r="448"/>
<g>
	<path class="st2" d="M328.8,554.2c0,0,105.4-85.6,133.7-72.1c28.4,13.5,46.7,32.5,54.8,42.8c8.1,10.3,20.8-17.9,23.5-22.3
		s35.4-38.3,72.5-15.3c37.1,23,114.7,51.4,128.5,140.2c-2.4-0.8-22.3,48.8-65.7,61.9c-3.8,1.2-14.3,3.4-18.7,3.8
		c-54.3,4.3-229.4,18-257-3.6s-49.9-13.8-44.8-21.6C360.7,660.2,328.8,554.2,328.8,554.2z"/>
	<circle class="st0" cx="682.2" cy="650.3" r="42.8"/>
	<circle class="st2" cx="521.1" cy="372.5" r="98.5"/>
	<rect x="302.2" y="414.8" transform="matrix(0.866 -0.5 0.5 0.866 -211.9437 224.6357)" class="st3" width="22" height="186.1"/>
	<path class="st2" d="M741.8,634.5c0,25.4-33.2,40.5-70.5,57.2c-37.4,16.7-78.9,35.1-136,35.1c-114.1,0-206.5-41.3-206.5-92.3
		s92.5-92.3,206.5-92.3S741.8,583.5,741.8,634.5z"/>
	<circle class="st0" cx="335.7" cy="608.3" r="54.1"/>
	<circle class="st2" cx="335.7" cy="608.3" r="39.5"/>
	<circle class="st0" cx="696.9" cy="637.5" r="54.1"/>
	<g>
		<defs>
			<ellipse id="SVGID_1_" cx="535.3" cy="600.5" rx="206.5" ry="133.7"/>
		</defs>
		<clipPath id="SVGID_2_">
			<use xlink:href="#SVGID_1_"  style="overflow:visible;"/>
		</clipPath>
		<g class="st4">
			<path class="st0" d="M578.6,765.9h7.9c70.9-28.6,118.2-23.7,118.2-23.7l3.9-3l0.2-169.2c-65.2-9.5-126.3,36.1-126.3,36.1
				c-62-39-126.1-29.6-126.1-29.6v162.6l3.9,3C535.7,744.2,578.6,765.9,578.6,765.9z"/>
			<polygon class="st2" points="574.9,592.4 578.7,588.1 586.4,588.1 590.2,592.4 590.2,770.9 586.4,775.2 578.7,775.2 574.9,770.9 
							"/>
		</g>
	</g>
	<circle class="st2" cx="696.9" cy="637.5" r="39.5"/>
</g>
</svg>
